<svg xmlns="http://www.w3.org/2000/svg" width="30" height="31" fill="none"><path stroke="#6E7191" stroke-linecap="round" stroke-width="2" d="M1.875 2.213H4.8c.559 0 1.1.184 1.535.52.435.336.737.805.855 1.328l.792 3.46m0 0 1.349 7.163a6.988 6.988 0 0 0 2.506 4.16 7.527 7.527 0 0 0 4.703 1.65h3.3a7.531 7.531 0 0 0 4.579-1.55 7.01 7.01 0 0 0 2.567-3.955l1.249-5.304c.061-.259.062-.527 0-.785a1.737 1.737 0 0 0-.352-.708 1.828 1.828 0 0 0-.638-.49 1.904 1.904 0 0 0-.797-.178L7.982 7.52Z"/><path stroke="#6E7191" stroke-width="2" d="M11.016 28.463a1.016 1.016 0 1 0 0-2.03 1.016 1.016 0 0 0 0 2.03ZM25.234 28.463a1.016 1.016 0 1 0 0-2.03 1.016 1.016 0 0 0 0 2.03Z"/></svg>