<svg xmlns="http://www.w3.org/2000/svg" width="25" height="28" fill="none"><path stroke="#6E7191" stroke-linecap="round" stroke-linejoin="round" stroke-width="2" d="m14.06 19.963 8.303 5.57a.7.7 0 0 0 .976-.2.643.643 0 0 0 .099-.342V7.307c0-1.4-.577-2.744-1.602-3.734a5.57 5.57 0 0 0-3.868-1.547H7.032a5.57 5.57 0 0 0-3.868 1.547 5.191 5.191 0 0 0-1.602 3.734V24.99c0 .121.035.24.1.342a.675.675 0 0 0 .267.244.705.705 0 0 0 .707-.043l8.305-5.57a2.802 2.802 0 0 1 1.56-.471c.557 0 1.101.165 1.56.472v0Z"/></svg>