<svg xmlns="http://www.w3.org/2000/svg" width="91" height="91" fill="none"><path stroke="#F56E1E" stroke-width="4" d="M45.5 89C69.524 89 89 69.524 89 45.5S69.524 2 45.5 2 2 21.476 2 45.5 21.476 89 45.5 89Z"/><path fill="#6E7191" stroke="#6E7191" d="M66.37 24.606H23.637a3.811 3.811 0 0 0-2.732 1.131c-.267.26-.49.559-.665.887a3.817 3.817 0 0 0-.473 1.852v5.893c0 .02-.007.04-.007.061v31.149a.814.814 0 0 0 .814.814h48.852a.814.814 0 0 0 .814-.814v-37.1a3.873 3.873 0 0 0-3.87-3.87v-.003Zm-44.694 2.786c.1-.188.23-.36.383-.507a2.201 2.201 0 0 1 1.577-.651h42.733a2.244 2.244 0 0 1 2.242 2.242v5.14H21.394v-5.14c-.002-.38.095-.753.281-1.084h.001Zm46.936 37.372H21.387V35.251h47.225v29.513Z"/><path fill="#6E7191" stroke="#6E7191" d="M26.394 30.066a.814.814 0 1 1-1.627 0 .814.814 0 0 1 1.627 0Z"/><path fill="#6E7191" d="M30.104 30.066a.814.814 0 1 1-1.629 0 .814.814 0 0 1 1.63 0Z"/><path stroke="#6E7191" d="M30.104 30.066a.814.814 0 1 1-1.629 0 .814.814 0 0 1 1.63 0"/><path fill="#6E7191" d="M33.813 30.066a.814.814 0 1 1-1.628 0 .814.814 0 0 1 1.628 0Z"/><path stroke="#6E7191" d="M33.813 30.066a.814.814 0 1 1-1.628 0 .814.814 0 0 1 1.628 0"/><path fill="#6E7191" stroke="#6E7191" d="M46.03 44.074a.814.814 0 0 0-.74-.477H26.177a.816.816 0 0 0-.741.477l-2.38 5.217a.814.814 0 0 0 .742 1.152h1.566v5.6a.814.814 0 0 0 .814.814H45.29a.814.814 0 0 0 .814-.814v-5.6h1.56a.813.813 0 0 0 .74-1.15l-2.373-5.219ZM26.7 45.225h10.71l-1.632 3.588H25.064l1.637-3.588Zm.292 5.217h9.315a.815.815 0 0 0 .742-.478l.816-1.8v7.063H26.99v-4.785Zm17.485 4.787h-4.982v-7.064l.786 1.718.04.09c.023.041.048.08.077.116a.876.876 0 0 0 .049.076.81.81 0 0 0 .1.087.411.411 0 0 0 .192.117.704.704 0 0 0 .089.04.814.814 0 0 0 .23.033h3.418v4.787Zm.814-6.415h-3.71l-1.637-3.588h4.82l1.632 3.588H45.29Z"/><path fill="#6E7191" d="M52.144 43.953a.814.814 0 1 1-1.628 0 .814.814 0 0 1 1.628 0Z"/><path stroke="#6E7191" d="M52.144 43.953a.814.814 0 1 1-1.628 0 .814.814 0 0 1 1.628 0"/><path fill="#6E7191" stroke="#6E7191" d="M52.144 47.984a.814.814 0 1 1-1.627 0 .814.814 0 0 1 1.627 0Z"/><path fill="#6E7191" d="M52.144 52.022a.813.813 0 1 1-1.626 0 .813.813 0 0 1 1.626 0Z"/><path stroke="#6E7191" d="M52.144 52.022a.813.813 0 1 1-1.626 0 .813.813 0 0 1 1.626 0"/><path fill="#6E7191" d="M52.144 56.057a.814.814 0 1 1-1.628 0 .814.814 0 0 1 1.628 0Z"/><path stroke="#6E7191" d="M52.144 56.057a.814.814 0 1 1-1.628 0 .814.814 0 0 1 1.628 0"/><path fill="#6E7191" stroke="#6E7191" d="M54.695 44.767h11.5a.814.814 0 1 0 0-1.628h-11.5a.814.814 0 0 0 0 1.628ZM54.695 48.802h11.5a.814.814 0 0 0 0-1.628h-11.5a.814.814 0 1 0 0 1.628ZM54.695 52.838h11.5a.814.814 0 0 0 0-1.628h-11.5a.814.814 0 1 0 0 1.628ZM54.695 56.871h11.5a.814.814 0 1 0 0-1.628h-11.5a.814.814 0 0 0 0 1.628Z"/></svg>