<svg xmlns="http://www.w3.org/2000/svg" width="91" height="91" fill="none"><path stroke="#F56E1E" stroke-width="4" d="M45.5 89C69.524 89 89 69.524 89 45.5S69.524 2 45.5 2 2 21.476 2 45.5 21.476 89 45.5 89Z"/><path fill="#6E7191" d="M58.825 35.047a12.51 12.51 0 1 0-12.509 12.509 12.523 12.523 0 0 0 12.51-12.509Zm-22.934 0a10.425 10.425 0 1 1 10.425 10.425A10.437 10.437 0 0 1 35.89 35.047h.001Z"/><path stroke="#6E7191" stroke-width=".35" d="M58.825 35.047a12.51 12.51 0 1 0-12.509 12.509 12.523 12.523 0 0 0 12.51-12.509Zm-22.934 0a10.425 10.425 0 1 1 10.425 10.425A10.437 10.437 0 0 1 35.89 35.047h.001Z"/><path stroke="#000" stroke-opacity=".2" stroke-width=".35" d="M58.825 35.047a12.51 12.51 0 1 0-12.509 12.509 12.523 12.523 0 0 0 12.51-12.509Zm-22.934 0a10.425 10.425 0 1 1 10.425 10.425A10.437 10.437 0 0 1 35.89 35.047h.001Z"/><path fill="#6E7191" d="m52.813 30.024-1.476-1.474-5.02 5.021-2.145-2.142-1.473 1.474 3.618 3.617 6.496-6.496Z"/><path stroke="#6E7191" stroke-width=".35" d="m52.813 30.024-1.476-1.474-5.02 5.021-2.145-2.142-1.473 1.474 3.618 3.617 6.496-6.496Z"/><path stroke="#000" stroke-opacity=".2" stroke-width=".35" d="m52.813 30.024-1.476-1.474-5.02 5.021-2.145-2.142-1.473 1.474 3.618 3.617 6.496-6.496Z"/><path fill="#6E7191" d="M24.145 71.99h43.71l-9.857-13.552h-6.524l8.714-15.546a15.752 15.752 0 0 0 2.074-7.785 16.16 16.16 0 0 0-32.317.095 14.792 14.792 0 0 0 2.072 7.669l8.718 15.567h-6.733L24.145 71.99Zm9.684-29.88a13.586 13.586 0 0 1-1.8-6.873 14.076 14.076 0 1 1 26.338 6.9L46.099 64.348 33.829 42.11Zm8.054 18.417 2.487 4.761a2.163 2.163 0 0 0 1.734 1.1 2.354 2.354 0 0 0 1.753-1.2l2.468-4.664h6.611l6.825 9.383H28.239l6.824-9.383 6.82.003Z"/><path stroke="#6E7191" stroke-width=".35" d="M24.145 71.99h43.71l-9.857-13.552h-6.524l8.714-15.546a15.752 15.752 0 0 0 2.074-7.785 16.16 16.16 0 0 0-32.317.095 14.792 14.792 0 0 0 2.072 7.669l8.718 15.567h-6.733L24.145 71.99Zm9.684-29.88a13.586 13.586 0 0 1-1.8-6.873 14.076 14.076 0 1 1 26.338 6.9L46.099 64.348 33.829 42.11Zm8.054 18.417 2.487 4.761a2.163 2.163 0 0 0 1.734 1.1 2.354 2.354 0 0 0 1.753-1.2l2.468-4.664h6.611l6.825 9.383H28.239l6.824-9.383 6.82.003Z"/><path stroke="#000" stroke-opacity=".2" stroke-width=".35" d="M24.145 71.99h43.71l-9.857-13.552h-6.524l8.714-15.546a15.752 15.752 0 0 0 2.074-7.785 16.16 16.16 0 0 0-32.317.095 14.792 14.792 0 0 0 2.072 7.669l8.718 15.567h-6.733L24.145 71.99Zm9.684-29.88a13.586 13.586 0 0 1-1.8-6.873 14.076 14.076 0 1 1 26.338 6.9L46.099 64.348 33.829 42.11Zm8.054 18.417 2.487 4.761a2.163 2.163 0 0 0 1.734 1.1 2.354 2.354 0 0 0 1.753-1.2l2.468-4.664h6.611l6.825 9.383H28.239l6.824-9.383 6.82.003Z"/></svg>