<svg xmlns="http://www.w3.org/2000/svg" width="91" height="91" fill="none"><path stroke="#F56E1E" stroke-width="4" d="M45.5 89C69.524 89 89 69.524 89 45.5S69.524 2 45.5 2 2 21.476 2 45.5 21.476 89 45.5 89Z"/><path fill="#6E7191" stroke="#6E7191" stroke-width=".65" d="m52.719 45.465-7.586-6.728 17.177-7.515.358.358c.286.215 3.793 3.292 6.155 5.224l.931.787-17.035 7.874Zm24.548-6.942-.648 17.82-36.5 17.392L14 49.186V31.58l38.29-14.314 24.977 21.257Zm-59.689-6.227 23.041 21.61 33.28-15.674-21.967-18.819-34.354 12.883Zm-1.646 5.01v8.159l1.36-2.29-1.36-5.869Zm.429 11.38L37.904 68.94l-3.364-9.161-15.96-14.815-2.219 3.722Zm2.935-5.726 16.175 15.03 3.722-2.791-21.829-20.47 1.932 8.231Zm20.541 25.479V57.13l-3.292 2.505 3.292 8.804Zm35.642-28.843-34.139 16.1V70.94l33.352-15.889.787-15.455Z"/></svg>