<svg xmlns="http://www.w3.org/2000/svg" width="91" height="91" fill="none"><path stroke="#F56E1E" stroke-width="4" d="M45.5 89C69.524 89 89 69.524 89 45.5S69.524 2 45.5 2 2 21.476 2 45.5 21.476 89 45.5 89Z"/><path fill="#6E7191" stroke="#6E7191" stroke-width=".25" d="M16.987 66.393h25.641a.951.951 0 0 0 .95-.95V43.601a.95.95 0 0 0-.95-.95h-25.64a.95.95 0 0 0-.95.95v21.843a.95.95 0 0 0 .95.95v-.001ZM27.433 44.55h4.748v6.781l-1.633-2.03a.95.95 0 0 0-1.48 0l-1.635 2.033V44.55Zm-9.5 0h7.6v9.5a.95.95 0 0 0 1.69.589l2.584-3.238 2.583 3.238a.949.949 0 0 0 1.69-.589v-9.5h7.6v19.943H17.936l-.003-19.943Z"/><path fill="#6E7191" stroke="#6E7191" stroke-width=".25" d="M33.131 57.846h5.7v1.9h-5.7v-1.9ZM31.232 60.695h9.5v1.9h-9.5v-1.9ZM59.723 39.802V17.96a.95.95 0 0 0-.95-.95h-25.64a.95.95 0 0 0-.95.95v21.842a.95.95 0 0 0 .95.95h25.64a.95.95 0 0 0 .95-.95ZM48.327 18.91v5.831l-1.634-2.031a.949.949 0 0 0-1.48 0l-1.63 2.031V18.91h4.744Zm9.5 19.943H34.082V18.91h7.6v8.547a.95.95 0 0 0 1.69.589l2.58-3.236 2.583 3.238a.949.949 0 0 0 1.69-.589V18.91h7.6l.002 19.943Z"/><path fill="#6E7191" stroke="#6E7191" stroke-width=".25" d="M50.225 32.205h5.7v1.9h-5.7v-1.9ZM48.326 35.054h8.55v1.9h-8.55v-1.9ZM74.015 42.651h-25.64a.95.95 0 0 0-.95.95v21.843a.95.95 0 0 0 .95.95h25.64a.95.95 0 0 0 .95-.95V43.601a.95.95 0 0 0-.95-.95Zm-15.243 1.9h4.748v6.781l-1.636-2.031a.95.95 0 0 0-1.48 0l-1.635 2.033.003-6.783Zm14.245 19.943h-23.74V44.55h7.6v9.5a.949.949 0 0 0 1.69.589l2.582-3.238 2.583 3.238a.949.949 0 0 0 1.69-.589v-9.5h7.6l-.005 19.944Z"/><path fill="#6E7191" stroke="#6E7191" stroke-width=".25" d="M64.471 57.846h5.7v1.9h-5.7v-1.9ZM62.571 60.695h9.5v1.9h-9.5v-1.9Z"/></svg>