<svg xmlns="http://www.w3.org/2000/svg" width="91" height="91" fill="none"><path fill="#6E7191" d="M45.897 19.726a1.516 1.516 0 0 0-1.2.437L17.623 47.239a1.514 1.514 0 0 0 0 2.146l21.348 21.346a1.513 1.513 0 0 0 2.143 0l27.08-27.077a1.512 1.512 0 0 0 .434-1.2l-1.073-12.777a1.515 1.515 0 0 0-.434-.94l-2.68-2.681 3.584-3.585a1.518 1.518 0 0 0-2.146-2.146l-3.585 3.585-2.68-2.681a1.514 1.514 0 0 0-.938-.434l-12.779-1.069Zm.446 3.074 11.54.969 2.278 2.279-2.938 2.938-2.1-2.1a1.517 1.517 0 1 0-2.146 2.146l3.163 3.163.01.009.008.009 3.165 3.163a1.517 1.517 0 0 0 2.146-2.143l-2.1-2.1 2.938-2.938 2.291 2.291.961 11.527-25.516 25.5-19.2-19.2 25.5-25.513Zm-5.545 12.4a3.746 3.746 0 0 0-3.612 4.77 3.94 3.94 0 0 0 4.72 2.755 3.764 3.764 0 0 0 2.67-4.655 3.97 3.97 0 0 0-3.778-2.87Zm.06 3.009a.8.8 0 0 1 .785.615.765.765 0 0 1-.55.984.792.792 0 0 1-.975-.591.758.758 0 0 1 .538-.981.876.876 0 0 1 .2-.027h.001Zm7.867 4.386a1.514 1.514 0 0 0-.429.048l-11.908 3.062a1.512 1.512 0 0 0 .76 2.926l11.9-3.062a1.51 1.51 0 0 0-.322-2.973v-.001Zm-4.336 5.844a3.74 3.74 0 0 0-3.517 4.77 3.938 3.938 0 0 0 4.72 2.752 3.764 3.764 0 0 0 2.67-4.655 3.966 3.966 0 0 0-3.873-2.867Zm.117 3a.807.807 0 0 1 .828.615.762.762 0 0 1-.55.981.79.79 0 0 1-.975-.588.758.758 0 0 1 .538-.981.852.852 0 0 1 .16-.027Z"/><path stroke="#F56E1E" stroke-width="4" d="M45.5 89C69.524 89 89 69.524 89 45.5S69.524 2 45.5 2 2 21.476 2 45.5 21.476 89 45.5 89Z"/></svg>